<?xml version="1.0" encoding="UTF-8" standalone="no"?>
<svg xmlns="http://www.w3.org/2000/svg" width="64" height="64" viewBox="0 0 64 64">
  <!-- Unicorn Favicon -->
  
  <!-- Body (oval) -->
  <ellipse cx="32" cy="32" rx="24" ry="20" fill="#E56BF7" />
  
  <!-- Mane (rainbow colors) -->
  <ellipse cx="15" cy="24" rx="7" ry="14" fill="#FF0000" />
  <ellipse cx="16" cy="24" rx="6" ry="13" fill="#FF7F00" />
  <ellipse cx="17" cy="24" rx="5" ry="12" fill="#FFFF00" />
  <ellipse cx="18" cy="24" rx="4" ry="11" fill="#00FF00" />
  <ellipse cx="19" cy="24" rx="3" ry="10" fill="#0000FF" />
  <ellipse cx="20" cy="24" rx="2" ry="9" fill="#4B0082" />
  <ellipse cx="21" cy="24" rx="1" ry="8" fill="#9400D3" />
  
  <!-- Horn (golden color) -->
  <path d="M45 14 L51 3 L48 14 Z" fill="#FFD700" />
  
  <!-- Legs - front -->
  <rect x="38" y="45" width="6" height="16" fill="#E56BF7" />
  
  <!-- Legs - back -->
  <rect x="20" y="45" width="6" height="16" fill="#E56BF7" />
  
  <!-- Eye (white with black pupil) -->
  <circle cx="44" cy="24" r="5" fill="white" />
  <circle cx="46" cy="24" r="2.5" fill="black" />
  
  <!-- Glitter effects (animated in real version) -->
  <circle cx="34" cy="15" r="1.5" fill="#FF0000" />
  <circle cx="44" cy="13" r="1.2" fill="#FF7F00" />
  <circle cx="50" cy="24" r="1.3" fill="#FFFF00" />
  <circle cx="48" cy="36" r="1.4" fill="#00FF00" />
  <circle cx="36" cy="40" r="1.1" fill="#0000FF" />
  <circle cx="24" cy="36" r="1.2" fill="#4B0082" />
  <circle cx="20" cy="20" r="1.5" fill="#9400D3" />
</svg>